<?xml version="1.0" encoding="UTF-8"?>
<svg version="1.1" xmlns="http://www.w3.org/2000/svg" width="1200" height="957">
<path d="M0 0 C3.74339135 0.00675712 7.4867417 -0.00397986 11.23012409 -0.01239584 C17.77994081 -0.02472892 24.32968586 -0.02598975 30.87951026 -0.01984541 C40.61974252 -0.01073272 50.35990882 -0.01880374 60.10013604 -0.03013665 C77.50007192 -0.0497829 94.89997797 -0.05215485 112.29992229 -0.04694145 C127.52958194 -0.04238069 142.7592298 -0.04298792 157.98888907 -0.04878179 C160.03338033 -0.04953867 162.07787158 -0.05029465 164.12236284 -0.05104974 C167.20340341 -0.05219496 170.28444398 -0.05334484 173.36548454 -0.05450898 C202.00323004 -0.06521105 230.64097162 -0.06994229 259.27871833 -0.06203882 C260.89734481 -0.06159306 260.89734481 -0.06159306 262.54867081 -0.0611383 C271.31105073 -0.05868947 280.0734306 -0.05607783 288.83581046 -0.05345416 C323.00883155 -0.0433533 357.18180349 -0.05170528 391.35481772 -0.07494871 C429.76941321 -0.101035 468.18397912 -0.11386552 506.59858379 -0.10676096 C510.69656071 -0.10604493 514.79453763 -0.10537053 518.89251456 -0.10472052 C519.90150217 -0.10455071 520.91048978 -0.1043809 521.95005277 -0.10420594 C537.1648883 -0.1019053 552.37969631 -0.10986874 567.59452567 -0.12301199 C584.90330313 -0.13793763 602.21201621 -0.13874714 619.52079231 -0.12094108 C629.19946634 -0.11139354 638.87799011 -0.11278127 648.55665404 -0.13017577 C655.03191183 -0.14069613 661.50705565 -0.13652164 667.98230229 -0.12069573 C671.66490545 -0.11209758 675.34721511 -0.10955568 679.02980274 -0.12496505 C711.5254267 -0.25140013 741.06691183 5.70303292 765.70833335 28.39160402 C766.22492514 28.86581789 766.74151694 29.34003176 767.27376303 29.82861574 C790.33342246 51.2392016 805.3190151 80.76038375 807.0733541 112.46661623 C807.22344958 116.79308942 807.24454544 121.11693742 807.22475371 125.44568499 C807.21173274 128.32395572 807.22376853 131.2013194 807.24078879 134.07956179 C807.2725379 140.22528785 807.27253366 146.37081208 807.27083335 152.51660402 C807.27373519 160.56098485 807.29147944 168.60515828 807.3372396 176.64941652 C807.34285847 177.63913958 807.34847735 178.62886263 807.3542665 179.64857729 C807.45714104 194.19885919 808.02866248 208.66883106 809.09114585 223.18066652 C809.1828792 224.44306343 809.1828792 224.44306343 809.27646575 225.73096331 C813.99424862 289.14356873 824.86477261 367.38567393 871.70833335 414.39160402 C872.54751303 415.23593996 873.38669272 416.0802759 874.2513021 416.95019777 C875.06212241 417.75586184 875.87294272 418.5615259 876.70833335 419.39160402 C877.34513022 420.02582277 877.9819271 420.66004152 878.63802085 421.31347902 C894.09220968 435.83669263 913.28323485 442.40072807 933.70833335 446.39160402 C935.35833335 446.72160402 937.00833335 447.05160402 938.70833335 447.39160402 C938.70833335 467.85160402 938.70833335 488.31160402 938.70833335 509.39160402 C927.81833335 511.86660402 927.81833335 511.86660402 916.70833335 514.39160402 C881.70912502 526.1612493 859.73433385 551.51117791 843.59651694 583.60254152 C824.52809698 622.3510256 816.25687571 666.00093174 811.45833335 708.64160402 C811.38120108 709.31683107 811.30406882 709.99205813 811.22459922 710.6877466 C810.63748139 715.91574252 810.15802946 721.1501587 809.70833335 726.39160402 C809.62179496 727.36262056 809.53525656 728.33363711 809.4460958 729.33407839 C808.01197158 745.91758136 807.51612239 762.42801712 807.3997396 779.06738527 C807.39271647 780.06375631 807.38569335 781.06012735 807.3784574 782.08669146 C807.31691125 791.39878499 807.2793611 800.71094483 807.25203452 810.02319582 C807.23602054 815.18022117 807.20570116 820.33701554 807.16727004 825.49391993 C807.1557872 827.4252315 807.14969119 829.35658438 807.14958892 831.28793009 C807.14850399 846.28187255 806.10068082 860.97749795 801.14583335 875.26660402 C800.89607749 875.99581057 800.64632163 876.72501711 800.38899741 877.47632082 C795.20884899 891.87805299 787.57718819 904.74472409 777.70833335 916.39160402 C777.04188803 917.20886965 776.37544272 918.02613527 775.6888021 918.86816652 C762.23812998 934.81173307 742.7164604 946.48246962 722.95833335 952.64160402 C722.18537925 952.88805666 721.41242514 953.1345093 720.61604819 953.3884302 C704.07403215 958.27269764 686.89568956 957.68279268 669.82862237 957.64853913 C666.16362269 957.64342184 662.49863965 957.65000277 658.8336424 957.6550258 C652.42312571 957.66222007 646.01264275 957.66204804 639.60212455 957.65693148 C630.06925746 957.64934361 620.53641866 957.65324584 611.00355174 957.65934809 C593.97478815 957.66986346 576.9460396 957.66897324 559.9172746 957.66319027 C545.01553426 957.65815461 530.11379942 957.65684788 515.2120584 957.65923555 C513.72803702 957.65946471 513.72803702 957.65946471 512.2140354 957.65969849 C508.19773077 957.66032119 504.18142614 957.660958 500.16512152 957.66161802 C462.50786974 957.6677327 424.85062752 957.66219427 387.19337721 957.65142423 C353.75198703 957.64193265 320.31061207 957.64278328 286.86922202 957.65234621 C249.27832274 957.66305987 211.6874319 957.66729975 174.09653131 957.66112168 C170.08795172 957.66048027 166.07937212 957.65985459 162.07079253 957.65923555 C161.08381214 957.6590774 160.09683174 957.65891925 159.07994285 957.6587563 C144.18846651 957.65648324 129.29699627 957.65913837 114.40552077 957.66419466 C97.47069812 957.66991617 80.53589283 957.66847708 63.60107234 957.65763317 C54.1282187 957.65176717 44.65540266 957.65136778 35.18255001 957.65892552 C28.84963044 957.6634201 22.51674092 957.66060145 16.18382579 957.65191598 C12.57931662 957.64717312 8.97488198 957.64550097 5.37037524 957.65272795 C-33.65961967 957.72529263 -66.50556757 950.21314177 -95.16666665 921.89160402 C-100.54728921 916.44614655 -105.34856438 910.98679286 -109.29166665 904.39160402 C-109.94393228 903.32554934 -110.5961979 902.25949465 -111.26822915 901.16113527 C-122.33982178 882.69548606 -129.42113719 862.19729544 -129.4493815 840.51098879 C-129.45446222 839.64762911 -129.45954293 838.78426943 -129.46477761 837.89474733 C-129.47544519 836.02333885 -129.48407941 834.1519179 -129.49089685 832.28049143 C-129.50283917 829.27384101 -129.52234561 826.26732464 -129.54401651 823.26072939 C-129.60500005 814.71154846 -129.65880344 806.16237268 -129.69303384 797.61303957 C-129.78498582 775.86299414 -130.01279482 754.183826 -131.6861979 732.48926027 C-131.74700414 731.69792759 -131.80781038 730.90659491 -131.87045923 730.09128245 C-136.85252733 666.8594101 -147.85014675 592.76698048 -192.29166665 544.39160402 C-193.15404947 543.43511965 -194.01643228 542.47863527 -194.9049479 541.49316652 C-213.03571808 522.31484074 -235.87187555 514.47556224 -261.29166665 509.39160402 C-261.29166665 488.93160402 -261.29166665 468.47160402 -261.29166665 447.39160402 C-251.39166665 445.41160402 -251.39166665 445.41160402 -241.29166665 443.39160402 C-226.09932004 438.4030723 -213.44928935 431.86717385 -201.29166665 421.39160402 C-200.60717447 420.83988527 -199.92268228 420.28816652 -199.2174479 419.71972902 C-150.16001199 379.24011589 -138.92545812 297.50240454 -133.04166665 238.51660402 C-132.95858255 237.68496737 -132.87549844 236.85333071 -132.78989663 235.99649294 C-132.55052331 233.56879984 -132.31784407 231.14058022 -132.08854165 228.71191652 C-132.02210458 228.02313921 -131.95566751 227.3343619 -131.88721719 226.62471254 C-130.57900337 212.32040282 -130.14465439 198.06284916 -130.09243646 183.70538576 C-130.0803971 180.68325093 -130.06089256 177.66124373 -130.0393168 174.63916262 C-129.97849663 166.05994235 -129.92373945 157.48074449 -129.89029947 148.90136965 C-129.8691689 143.61667157 -129.8337417 138.33222415 -129.78954187 133.04767092 C-129.7755499 131.05775161 -129.76669826 129.06778819 -129.76348748 127.07782229 C-129.73495055 111.09850287 -128.38648901 95.97106448 -123.10416665 80.76660402 C-122.80083413 79.88399904 -122.49750161 79.00139406 -122.1849772 78.09204348 C-111.81934495 48.93324195 -90.06397522 24.61297495 -62.25553384 11.08886965 C-41.42266886 1.33132304 -22.66789918 -0.0611514 0 0 Z " fill="#7C11F7" transform="translate(261.29166665300727,-0.3916040239855647)"/>
<path d="M0 0 C240.61391334 0 240.61391334 0 263.25 5.8125 C264.26449219 6.07111816 265.27898437 6.32973633 266.32421875 6.59619141 C274.54631998 8.75776611 282.26918554 11.42664576 290 15 C290.9890332 15.45246094 290.9890332 15.45246094 291.99804688 15.9140625 C301.0382178 20.09036681 309.21902333 24.71924041 317 31 C317.52190918 31.41652832 318.04381836 31.83305664 318.58154297 32.26220703 C342.5566083 51.49711571 356.10378492 75.91803642 362 106 C362.26018921 107.15495972 362.26018921 107.15495972 362.52563477 108.33325195 C367.54847548 136.57025096 359.64274768 167.61111422 343.875 191.17578125 C326.88234805 214.57102171 303.74972115 232.79907975 275 239 C275 239.33 275 239.66 275 240 C276.05574219 240.20753906 277.11148437 240.41507813 278.19921875 240.62890625 C306.68336991 246.45743249 331.80080393 256.68854246 353 277 C353.75925781 277.69609375 354.51851562 278.3921875 355.30078125 279.109375 C373.94091879 296.75150863 383.7034127 321.17849905 388 346 C388.17273438 346.93424805 388.34546875 347.86849609 388.5234375 348.83105469 C393.45877689 381.64903892 384.89039463 419.82490984 365.37255859 446.7512207 C362.99052191 449.89856589 360.52237957 452.96451458 358 456 C357.32839844 456.83015625 356.65679688 457.6603125 355.96484375 458.515625 C352.05679547 463.18035689 347.740012 467.19282236 343 471 C341.99839844 471.81210937 340.99679687 472.62421875 339.96484375 473.4609375 C322.37216683 487.26631951 302.34626947 495.80165329 281 502 C280.09870361 502.26522461 279.19740723 502.53044922 278.26879883 502.80371094 C271.63469836 504.69256619 264.99227814 506.01672995 258.1875 507.125 C257.20974609 507.29386719 256.23199219 507.46273438 255.22460938 507.63671875 C171.29039735 521.54362668 85.07851689 510 0 510 C0 341.7 0 173.4 0 0 Z " fill="#F7F0FD" transform="translate(416,223)"/>
<path d="M0 0 C20.79 -0.04125 41.58 -0.0825 63 -0.125 C72.80525391 -0.15231201 72.80525391 -0.15231201 82.80859375 -0.18017578 C90.86132812 -0.18920898 90.86132812 -0.18920898 94.64477539 -0.19088745 C97.25748585 -0.19393575 99.86999497 -0.20015234 102.48266602 -0.21115112 C130.70423679 -0.32474556 130.70423679 -0.32474556 144 2 C144.90554123 2.15435013 145.81108246 2.30870026 146.74406433 2.46772766 C148.8450771 2.84287249 150.91938666 3.2753498 153 3.75 C154.11217896 4.00269653 154.11217896 4.00269653 155.24682617 4.26049805 C173.70561677 8.66666337 189.59599135 16.47432108 203 30 C203.59425781 30.56074219 204.18851563 31.12148438 204.80078125 31.69921875 C217.94609849 45.19885721 221.63450143 65.88164838 221.40063477 83.90332031 C220.7248433 105.34144731 214.04026747 124.63037486 198.265625 139.59375 C195.58660054 141.86410971 192.85921402 143.9624469 190 146 C189.24589844 146.54011719 188.49179687 147.08023438 187.71484375 147.63671875 C160.70045944 165.2910591 125.55391609 165.48433468 94.53125 165.29296875 C92.09342659 165.28854208 89.65560029 165.28549133 87.21777344 165.28381348 C78.31180466 165.26826809 69.40589745 165.22638587 60.5 165.1875 C40.535 165.125625 20.57 165.06375 0 165 C0 110.55 0 56.1 0 0 Z " fill="#7811F1" transform="translate(499,502)"/>
<path d="M0 0 C18.52125 -0.020625 37.0425 -0.04125 56.125 -0.0625 C61.94914551 -0.071604 67.77329102 -0.08070801 73.77392578 -0.09008789 C80.94702148 -0.09460449 80.94702148 -0.09460449 84.31686401 -0.09544373 C86.64458406 -0.09696813 88.97230338 -0.10046172 91.30001831 -0.10557556 C124.6926256 -0.17519894 124.6926256 -0.17519894 136.875 2.6875 C137.99962646 2.94805176 137.99962646 2.94805176 139.14697266 3.21386719 C158.18478357 7.83418975 176.39239508 16.37119711 187.32421875 33.4765625 C197.36907249 50.44819884 200.21526482 71.43172973 195.8125 90.6875 C195.25588369 92.47385001 194.65180673 94.24614253 194 96 C193.64808594 96.98742187 193.29617188 97.97484375 192.93359375 98.9921875 C185.60358417 118.0066678 172.87479123 129.84350809 154.875 138.6875 C149.89179954 140.79297505 144.77874289 142.4916584 139.625 144.125 C138.52260986 144.48791138 138.52260986 144.48791138 137.39794922 144.8581543 C119.49242501 150.26391026 100.85067904 150.42421144 82.32421875 150.29296875 C80.20105223 150.28854199 78.07788239 150.28549129 75.95471191 150.28381348 C68.19892374 150.26826913 60.44320626 150.22638693 52.6875 150.1875 C35.300625 150.125625 17.91375 150.06375 0 150 C0 100.5 0 51 0 0 Z " fill="#7C12F2" transform="translate(499,289)"/>
<path d="M0 0 C19.5525 -0.04125 39.105 -0.0825 59.25 -0.125 C68.51433105 -0.15231201 68.51433105 -0.15231201 77.96582031 -0.18017578 C85.50146484 -0.18920898 85.50146484 -0.18920898 89.02801514 -0.19088745 C91.49368003 -0.19396079 93.95934189 -0.20099936 96.42498779 -0.21115112 C100.15740185 -0.22575175 103.88963205 -0.22781328 107.62207031 -0.22705078 C109.27273436 -0.23784511 109.27273436 -0.23784511 110.95674515 -0.2488575 C111.96144222 -0.2461025 112.9661393 -0.24334751 114.00128174 -0.24050903 C114.87514149 -0.24235262 115.74900124 -0.24419621 116.64934158 -0.24609566 C119 0 119 0 123 2 C83.07 2 43.14 2 2 2 C2 56.78 2 111.56 2 168 C47.21 167.67 92.42 167.34 139 167 C134.50973194 171.49026806 124.81548963 170.11676101 118.76393032 170.12442875 C117.5971629 170.12083064 116.43039549 170.11723253 115.22827148 170.11352539 C113.9584269 170.11364593 112.68858232 170.11376646 111.38025761 170.11389065 C107.97048309 170.11411479 104.56074425 170.10835319 101.15097809 170.10128021 C97.94183962 170.09555092 94.73270254 170.09531523 91.52355957 170.09460449 C82.16153506 170.08937407 72.79951707 170.07541281 63.4375 170.0625 C42.503125 170.041875 21.56875 170.02125 0 170 C0 113.9 0 57.8 0 0 Z " fill="#FEFEFE" transform="translate(497,499)"/>
<path d="M0 0 C0.66 0 1.32 0 2 0 C4.27424718 4.54849436 3.18502536 10.88116822 3.1875 15.875 C3.19974609 17.16792969 3.21199219 18.46085938 3.22460938 19.79296875 C3.22654297 21.03433594 3.22847656 22.27570312 3.23046875 23.5546875 C3.23457764 24.69405762 3.23868652 25.83342773 3.24291992 27.00732422 C3.00777348 29.90423385 2.50948068 31.55387104 1 34 C0.67 34 0.34 34 0 34 C0 22.78 0 11.56 0 0 Z " fill="#EADDFB" transform="translate(802,573)"/>
<path d="M0 0 C0.66 0 1.32 0 2 0 C2.20430975 10.21548751 2.2054634 19.95726488 0 30 C-0.66 30 -1.32 30 -2 30 C-1.93941406 29.175 -1.87882813 28.35 -1.81640625 27.5 C-1.15165167 18.33661385 -0.55974648 9.17031466 0 0 Z " fill="#FCFBFE" transform="translate(777,343)"/>
<path d="M0 0 C0.99 0.33 1.98 0.66 3 1 C4.16796875 3.65234375 4.16796875 3.65234375 5.1875 6.9375 C5.70376953 8.55978516 5.70376953 8.55978516 6.23046875 10.21484375 C7 13 7 13 7 15 C6.01 14.67 5.02 14.34 4 14 C2.83203125 11.34765625 2.83203125 11.34765625 1.8125 8.0625 C1.46832031 6.98097656 1.12414062 5.89945313 0.76953125 4.78515625 C0 2 0 2 0 0 Z " fill="#F0E7FC" transform="translate(794,541)"/>
<path d="M0 0 C5.28 0.99 10.56 1.98 16 3 C15.34 3.66 14.68 4.32 14 5 C10.9609375 4.9765625 10.9609375 4.9765625 7.375 4.625 C6.18648437 4.51414062 4.99796875 4.40328125 3.7734375 4.2890625 C2.85820313 4.19367188 1.94296875 4.09828125 1 4 C0.67 2.68 0.34 1.36 0 0 Z " fill="#EFE5FA" transform="translate(686,462)"/>
<path d="M0 0 C0 3 0 3 -2.1875 5.48046875 C-3.115625 6.37378906 -4.04375 7.26710938 -5 8.1875 C-5.928125 9.08855469 -6.85625 9.98960937 -7.8125 10.91796875 C-8.534375 11.60503906 -9.25625 12.29210937 -10 13 C-10.66 12.67 -11.32 12.34 -12 12 C-10.75479583 10.55834372 -9.50362077 9.12184348 -8.25 7.6875 C-7.55390625 6.88699219 -6.8578125 6.08648437 -6.140625 5.26171875 C-4.20854665 3.22034399 -2.30056874 1.60107149 0 0 Z " fill="#FDFBFE" transform="translate(683,406)"/>
<path d="M0 0 C-1 2 -1 2 -3.6875 3.1875 C-7.23590538 4.05786358 -9.47952545 3.83820823 -13 3 C-4.58823529 -1.52941176 -4.58823529 -1.52941176 0 0 Z " fill="#F0E6FC" transform="translate(648,431)"/>
<path d="M0 0 C-3.45245824 2.30163882 -4.94738713 2.34490322 -9 2 C-9.66 1.34 -10.32 0.68 -11 0 C-3.57142857 -1.28571429 -3.57142857 -1.28571429 0 0 Z " fill="#F0E6FC" transform="translate(651,664)"/>
<path d="M0 0 C1 2 1 2 0.25 4.5625 C-1 7 -1 7 -4 8 C-3.40138258 5.64828869 -2.73075648 3.3140622 -2 1 C-1.34 0.67 -0.68 0.34 0 0 Z " fill="#F0E7FC" transform="translate(717,611)"/>
<path d="M0 0 C2.97 0.495 2.97 0.495 6 1 C6 1.99 6 2.98 6 4 C3.36 3.67 0.72 3.34 -2 3 C-1.34 2.01 -0.68 1.02 0 0 Z " fill="#F0E7FB" transform="translate(645,502)"/>
</svg>
