<?xml version="1.0" encoding="UTF-8"?>
<svg version="1.1" xmlns="http://www.w3.org/2000/svg" width="225" height="225">
<path d="M0 0 C74.25 0 148.5 0 225 0 C225 74.25 225 148.5 225 225 C150.75 225 76.5 225 0 225 C0 150.75 0 76.5 0 0 Z " fill="#F6DE1D" transform="translate(0,0)"/>
<path d="M0 0 C4.79919034 3.93662076 7.89816012 7.83990662 10.04296875 13.67578125 C7.11302257 15.68702682 4.17284576 17.68277531 1.23046875 19.67578125 C0.39708984 20.248125 -0.43628906 20.82046875 -1.29492188 21.41015625 C-2.09736328 21.9515625 -2.89980469 22.49296875 -3.7265625 23.05078125 C-4.83414917 23.80488281 -4.83414917 23.80488281 -5.96411133 24.57421875 C-7.95703125 25.67578125 -7.95703125 25.67578125 -10.95703125 25.67578125 C-12.60546875 23.99609375 -12.60546875 23.99609375 -14.33203125 21.80078125 C-18.33607144 17.06949368 -20.67690848 15.8929358 -26.89453125 15.30078125 C-31.16683801 15.40577178 -33.66367435 16.93131716 -36.95703125 19.67578125 C-39.44410864 23.40639733 -39.36153721 26.36105103 -38.95703125 30.67578125 C-38.35438943 33.52154069 -38.35438943 33.52154069 -36.95703125 35.67578125 C-35.19365737 36.70640596 -35.19365737 36.70640596 -32.95703125 37.67578125 C-32.00610596 38.1130957 -31.05518066 38.55041016 -30.07543945 39.00097656 C-28.98062256 39.49694336 -27.88580566 39.99291016 -26.7578125 40.50390625 C-25.53560716 41.06206198 -24.31360864 41.62067075 -23.09179688 42.1796875 C-21.1893517 43.05008725 -19.28609514 43.91830685 -17.37915039 44.77880859 C-9.82003054 48.19336736 -2.67925826 51.77681284 4.04296875 56.67578125 C5.09484375 57.41828125 6.14671875 58.16078125 7.23046875 58.92578125 C13.39571355 64.95402061 17.59503189 72.74326724 18.37890625 81.375 C18.48845174 92.55959489 17.13562868 101.9396573 9.7890625 110.8984375 C0.96364394 119.88180539 -11.9696162 123.75288034 -24.33203125 123.92578125 C-39.00344059 123.75714436 -51.46899627 120.15882961 -63.33203125 111.36328125 C-72.95703125 101.50911458 -72.95703125 101.50911458 -72.95703125 95.67578125 C-70.13664567 93.35646069 -66.87109893 91.67492813 -63.70703125 89.86328125 C-62.83433594 89.33541016 -61.96164063 88.80753906 -61.0625 88.26367188 C-60.21816406 87.77447266 -59.37382813 87.28527344 -58.50390625 86.78125 C-57.72885742 86.32903076 -56.95380859 85.87681152 -56.15527344 85.41088867 C-53.95703125 84.67578125 -53.95703125 84.67578125 -51.77539062 85.43139648 C-49.63129764 86.89869535 -48.30003595 88.50152763 -46.70703125 90.55078125 C-42.00042513 96.12785646 -36.1669019 99.16654577 -28.87890625 99.87890625 C-22.72583266 100.0117064 -17.28025765 99.3375888 -12.34765625 95.38671875 C-9.84575638 92.75831832 -8.96767647 90.7420182 -8.39453125 87.17578125 C-9.08753192 82.86377709 -10.04226263 80.94600945 -12.95703125 77.67578125 C-18.84395846 73.83424681 -25.33102741 71.12406676 -31.76953125 68.36328125 C-45.47197061 62.31447945 -58.41220725 55.43386614 -64.24609375 40.82421875 C-67.36399203 31.40199867 -66.91276157 20.74719289 -62.95703125 11.67578125 C-57.80652168 2.90430738 -49.7287013 -4.17884 -39.8203125 -6.9140625 C-25.81316211 -8.9205438 -11.76838136 -8.3940844 0 0 Z " fill="#010100" transform="translate(184.95703125,79.32421875)"/>
<path d="M0 0 C8.58 0 17.16 0 26 0 C26.0906536 12.55308255 26.16391895 25.10594486 26.20724869 37.65928173 C26.22805305 43.48936897 26.25623935 49.3192191 26.30175781 55.14916992 C26.3454714 60.78372312 26.36919079 66.41804938 26.37950897 72.05275917 C26.38685475 74.19397868 26.40119838 76.33518689 26.42292023 78.47630882 C26.56792799 93.37285946 26.62108837 108.23583486 16 120 C6.52300627 128.55615224 -5.89096086 130.8443666 -18.26953125 130.31640625 C-31.23740886 129.21651297 -40.61570858 123.11392473 -49.1875 113.5625 C-51.15186348 110.78529645 -52.08965428 108.26207215 -53 105 C-49.71262589 102.99287794 -46.41942172 100.99552966 -43.125 99 C-42.18785156 98.42765625 -41.25070313 97.8553125 -40.28515625 97.265625 C-39.38925781 96.72421875 -38.49335937 96.1828125 -37.5703125 95.625 C-36.32918701 94.87089844 -36.32918701 94.87089844 -35.06298828 94.1015625 C-33 93 -33 93 -31 93 C-29.40773752 95.1700263 -28.04268098 97.44632228 -26.6328125 99.73828125 C-24.88520214 102.15901426 -23.60624549 103.54234765 -21 105 C-17.89869173 105.51204196 -17.89869173 105.51204196 -14.5625 105.4375 C-13.45003906 105.45683594 -12.33757813 105.47617188 -11.19140625 105.49609375 C-7.27355216 104.88707604 -5.71029538 103.8728175 -3 101 C-0.75249973 95.85774931 -0.69487698 91.10498537 -0.68115234 85.59814453 C-0.66608391 84.20694649 -0.66608391 84.20694649 -0.65071106 82.78764343 C-0.6199333 79.73603916 -0.60285887 76.68452241 -0.5859375 73.6328125 C-0.56722152 71.51145681 -0.54764778 69.39010852 -0.5272522 67.26876831 C-0.47597057 61.69576388 -0.43632351 56.12273533 -0.39910889 50.54962158 C-0.35904443 44.85854137 -0.3079632 39.16756118 -0.2578125 33.4765625 C-0.1611001 22.31777168 -0.07769881 11.15893943 0 0 Z " fill="#010100" transform="translate(71,73)"/>
</svg>
